<?xml version="1.0" encoding="utf-8"?>
<!-- Generator: Adobe Illustrator 24.1.1, SVG Export Plug-In . SVG Version: 6.00 Build 0)  -->
<svg version="1.1" id="Capa_1" xmlns="http://www.w3.org/2000/svg" xmlns:xlink="http://www.w3.org/1999/xlink" x="0px" y="0px"
	 viewBox="0 0 529 115" style="enable-background:new 0 0 529 115;" xml:space="preserve">
<style type="text/css">
	.st0{fill:#4D4D4D;}
	.st1{fill:#38749C;}
	.st2{fill:none;stroke:#FFFFFF;stroke-width:8.5039;stroke-linecap:round;stroke-linejoin:round;stroke-miterlimit:10;}
</style>
<g>
	<g>
		<path class="st0" d="M190,28.4c4.9,0,8.8,0.9,11.6,3c2.8,2.1,4.6,5.4,4.6,10c0,10.2-8.5,14.4-15.1,14.4c-0.7,0-1.4-0.1-1.9-0.1
			l-4.6-1.2v10.7c0,5.9,0.5,6.1,6.7,6.7v2.1h-19.2v-2.1c5.7-0.6,6-1,6-6.8V37.4c0-6.2-0.7-6.4-6-6.9v-2.1
			C172.2,28.4,190,28.4,190,28.4z M184.8,51.9c0.8,0.4,2.6,0.9,4.7,0.9c4.3,0,9.8-2.3,9.8-11.2c0-7.7-4.8-10.7-10.2-10.7
			c-1.9,0-3.2,0.4-3.6,0.8c-0.5,0.5-0.7,1.3-0.7,3L184.8,51.9L184.8,51.9z"/>
		<path class="st0" d="M231,73.9v-2c3.8-0.4,4.3-0.8,4.3-5.3V55c0-5.7-2.2-8.5-6.4-8.4c-2.4,0-4.9,1.2-6.8,3.3v16.7
			c0,4.4,0.5,4.8,4.4,5.3v2h-15v-2c3.8-0.4,4.7-0.7,4.7-5.3V33.1c0-3.6-0.2-4.5-4.6-5v-1.9c3.8-0.4,8-1.4,10.6-2.4
			c0,2.7,0,5.7,0,8.5v14.9c2.4-2.5,6.1-5,9.7-5c5.6,0,9.4,3.7,9.4,11.9v12.4c0,4.6,0.5,4.9,4.3,5.3v2H231z"/>
		<path class="st0" d="M266.3,42.3c8.7,0,14.9,6.8,14.9,15.7c0,11.3-8.1,16.8-15,16.8c-9.5,0-15.2-7.8-15.2-15.7
			C251,47.8,259.6,42.3,266.3,42.3z M265.5,44.7c-3.9,0-7.5,4-7.5,12.2c0,8.8,3.6,15.3,8.9,15.3c3.9,0,7.3-2.9,7.3-12.6
			C274.3,51.2,271.1,44.7,265.5,44.7z"/>
		<path class="st0" d="M300.8,73.9c-1.1,0.6-2.2,0.9-2.9,0.9c-4.5,0-7-2.7-7-8.4V46.1h-4.6l-0.3-0.8l1.9-2.1h3.1v-5.9
			c1.5-1.5,3.7-3.3,5.2-4.8l1,0.2c-0.1,2.8-0.2,6.8-0.2,10.5h7.6c0.6,0.7,0.4,2.3-0.4,3H297v17.8c0,5.6,2.2,6.6,3.9,6.6
			c1.5,0,3-0.6,4-1l0.6,1.9L300.8,73.9z"/>
		<path class="st0" d="M325.3,42.3c8.7,0,14.9,6.8,14.9,15.7c0,11.3-8.1,16.8-15,16.8c-9.5,0-15.2-7.8-15.2-15.7
			C310,47.8,318.6,42.3,325.3,42.3z M324.5,44.7c-3.9,0-7.5,4-7.5,12.2c0,8.8,3.6,15.3,9,15.3c3.9,0,7.3-2.9,7.3-12.6
			C333.2,51.2,330.1,44.7,324.5,44.7z"/>
		<path class="st0" d="M388,62.6c-1,3.4-2.7,8.5-3.7,10.7c-1.9,0.4-7.3,1.7-12.4,1.7c-16.6,0-24.7-11.3-24.7-23.4
			c0-14.3,10.5-24.2,25.9-24.2c5.9,0,10.7,1.3,12.8,1.6c0.3,3.2,0.8,7.6,1.3,11l-2.2,0.5c-1.4-4.8-3.1-7.7-6.5-9.1
			c-1.7-0.8-4.5-1.3-6.9-1.3c-11,0-16.7,8.5-16.7,20c0,13.4,6.7,22.1,17.4,22.1c6.7,0,10.2-3.3,13.7-10.4L388,62.6z"/>
		<path class="st0" d="M413.1,73.9v-2c3.8-0.4,4.3-0.8,4.3-5.3V55c0-5.7-2.2-8.5-6.4-8.4c-2.4,0-5,1.2-6.8,3.3v16.7
			c0,4.4,0.5,4.8,4.4,5.3v2h-15v-2c3.8-0.4,4.7-0.7,4.7-5.3V33.1c0-3.6-0.2-4.5-4.6-5v-1.9c3.8-0.4,8-1.4,10.6-2.4
			c0,2.7,0,5.7,0,8.5v14.9c2.4-2.5,6.1-5,9.7-5c5.6,0,9.4,3.7,9.4,11.9v12.4c0,4.6,0.5,4.9,4.3,5.3v2H413.1z"/>
		<path class="st0" d="M458,67.8c-4.3,5.7-9.2,6.9-11.5,6.9c-8.4,0-13.5-7-13.5-15.1c0-4.8,1.7-9.3,4.5-12.3
			c2.9-3.3,6.6-5.1,10.2-5.1c6,0,10.5,5.3,10.5,11c-0.1,1.4-0.2,2.1-1.3,2.4c-1.3,0.3-10.2,0.9-18,1.2c-0.1,9,5.2,12.9,10,12.9
			c2.8,0,5.4-1.2,7.9-3.5L458,67.8z M446.3,45c-3,0-6,3.1-6.8,8.7c3.6,0,7.2,0,11-0.2c1.2,0,1.6-0.3,1.6-1.4
			C452.1,48.4,449.8,45,446.3,45z"/>
		<path class="st0" d="M489.5,67.5c-3,4.2-7.5,7.2-11.6,7.2c-8.8,0-13.9-7.2-13.9-14.8c0-5.5,2.4-10.1,6.9-13.7c3.8-3,7.9-4,10.6-4
			c3,0,5.2,0.9,6.3,1.8c1,0.8,1.1,1.3,1.1,2.1c0,1.7-1.8,3.3-2.5,3.3c-0.4,0-0.7-0.2-1.3-0.7c-2.3-2.1-4.6-3.1-6.9-3.1
			c-4.1,0-8,3.7-8,11c-0.1,9.7,6.4,12.8,10.2,12.8c2.8,0,5.1-0.8,8.1-3.7L489.5,67.5z"/>
		<path class="st0" d="M527.5,73.9c-4,0-8.1,0.1-9.7,0.1c-0.4-0.5-10.6-13.5-11-13.9c-0.9-1.1-1.3-1.4-1.9-1.4c-0.3,0-0.8,0-1.1,0.1
			v7.7c0,4.7,0.3,4.9,4.6,5.4v2h-15.3v-2c4.4-0.4,4.7-0.9,4.7-5.4V33.3c0-4.4-0.5-4.6-4.5-5.3v-1.9c3.7-0.4,7.8-1.4,10.5-2.4
			c0,3,0,5.8,0,8.8v24.3c2-0.5,3.2-1.4,4.2-2.5c1.6-1.6,4.1-4.8,5.2-6.5c1.3-1.9,0.7-2.5-2.5-2.8v-2l14.1-0.6v2
			c-4.7,0.8-6.2,1.4-9,4.4c-1.3,1.3-4,4.6-5.5,6.5c1.4,2.1,8.2,10.4,10.4,12.8c3.1,3.2,4,3.5,6.7,3.7L527.5,73.9L527.5,73.9z"/>
	</g>
</g>
<g>
	<g>
		<path class="st0" d="M22,57.8C22,35,34.5,15.2,53,4.7H16.1c-8.9,0-16.2,7.3-16.2,16.2v73.7c0,8.9,7.3,16.2,16.2,16.2h36.8
			C34.5,100.3,22,80.5,22,57.8z"/>
		<path class="st0" d="M149.9,4.7h-36.8C131.5,15.2,144,35,144,57.8s-12.5,42.6-30.9,53.1h36.9c8.9,0,16.2-7.3,16.2-16.2V20.9
			C166.1,11.9,158.9,4.7,149.9,4.7z"/>
	</g>
	<ellipse class="st1" cx="83" cy="57.8" rx="44.1" ry="44.1"/>
	<path class="st2" d="M83,26.4c17.3,0,31.4,14.1,31.4,31.4"/>
</g>
</svg>
